<?xml version="1.0" encoding="UTF-8" standalone="no"?>
<!DOCTYPE svg PUBLIC "-//W3C//DTD SVG 1.1//EN" "http://www.w3.org/Graphics/SVG/1.1/DTD/svg11.dtd">
<!-- Created with Vectornator (http://vectornator.io/) -->
<svg height="100%" stroke-miterlimit="10" style="fill-rule:nonzero;clip-rule:evenodd;stroke-linecap:round;stroke-linejoin:round;" version="1.1" viewBox="0 0 480 480" width="100%" xml:space="preserve" xmlns="http://www.w3.org/2000/svg" xmlns:xlink="http://www.w3.org/1999/xlink">
<defs/>
<g id="Untitled">
<g opacity="1">
<path d="M298.965 258.82L217.395 258.82L217.395 179.773C233.754 175.952 245.989 161.281 245.989 143.777C245.989 123.375 229.391 106.785 208.997 106.785C188.602 106.785 172.005 123.383 172.005 143.777C172.005 161.281 184.239 175.953 200.599 179.773L200.599 258.824L119.021 258.82C114.38 258.82 110.623 262.582 110.623 267.218L110.623 447.168C110.623 451.805 114.38 455.567 119.021 455.567L298.971 455.567C303.608 455.567 307.369 451.805 307.369 447.168L307.373 267.218C307.373 262.582 303.608 258.816 298.971 258.816L298.965 258.82ZM188.795 143.77C188.795 132.633 197.857 123.575 208.99 123.575C220.122 123.575 229.185 132.637 229.185 143.77C229.185 154.903 220.122 163.965 208.99 163.965C197.857 163.969 188.795 154.91 188.795 143.77ZM290.565 438.77L127.425 438.77L127.425 275.62L200.601 275.62L200.601 357.964C200.601 362.6 204.359 366.362 208.999 366.362C213.64 366.362 217.398 362.6 217.398 357.964L217.398 275.62L290.566 275.62L290.565 438.77Z" fill="#000000" fill-rule="nonzero" opacity="1" stroke="none"/>
<path d="M370.335 71.8597C370.866 71.9613 371.39 72.0121 371.909 72.0121C375.862 72.0121 379.386 69.2074 380.151 65.1762L385.987 34.3992C386.851 29.8406 383.858 25.4461 379.3 24.5828C374.718 23.7156 370.347 26.7117 369.483 31.2703L363.647 62.0473C362.788 66.602 365.776 70.9965 370.335 71.8597Z" fill="#000000" fill-rule="nonzero" opacity="1" stroke="none"/>
<path d="M425.065 106.85C426.694 106.85 428.342 106.381 429.792 105.393L455.683 87.7597C459.518 85.1503 460.503 79.9238 457.893 76.0877C455.284 72.2518 450.069 71.2713 446.221 73.8689L420.33 91.5019C416.495 94.1113 415.51 99.3378 418.12 103.174C419.745 105.565 422.377 106.85 425.065 106.85L425.065 106.85Z" fill="#000000" fill-rule="nonzero" opacity="1" stroke="none"/>
<path d="M302.725 81.2897C304.354 83.6764 306.991 84.9616 309.674 84.9616C311.303 84.9616 312.951 84.4929 314.401 83.5046C318.237 80.8952 319.221 75.6687 316.62 71.8326L298.991 45.9416C296.377 42.1057 291.155 41.1213 287.315 43.7228C283.479 46.3322 282.494 51.5587 285.096 55.3948L302.725 81.2897Z" fill="#000000" fill-rule="nonzero" opacity="1" stroke="none"/>
<path d="M470.365 158.26L439.588 152.424C435.025 151.557 430.635 154.553 429.772 159.111C428.908 163.67 431.9 168.064 436.459 168.928L467.236 174.764C467.767 174.865 468.291 174.916 468.81 174.916C472.763 174.916 476.287 172.111 477.052 168.08C477.912 163.518 474.924 159.123 470.365 158.26Z" fill="#000000" fill-rule="nonzero" opacity="1" stroke="none"/>
<path d="M410.585 179.13C414.823 172.391 417.886 164.978 419.37 157.138C425.948 122.431 403.069 88.8407 368.366 82.2547C364.405 81.5047 360.37 81.1219 356.366 81.1219C331.339 81.1219 309.151 95.6879 298.698 117.411C275.034 76.3369 231.362 50.5789 182.998 50.5789C109.279 50.5789 49.3082 110.548 49.3082 184.269C49.3082 190.996 49.8238 197.753 50.8473 204.457C22.5543 212.969 2.80025 238.98 2.80025 269.215C2.80025 306.563 33.1793 336.942 70.5233 336.942C77.1249 336.942 83.6483 335.985 89.9253 334.102C94.3667 332.774 96.8901 328.087 95.5542 323.645C94.2222 319.2 89.5464 316.672 85.0932 318.012C80.3823 319.423 75.4799 320.141 70.5152 320.141C42.4372 320.141 19.5932 297.297 19.5932 269.215C19.5932 244.328 37.4052 223.246 61.9452 219.078C64.203 218.699 66.2069 217.402 67.496 215.504C68.7772 213.606 69.2382 211.266 68.7499 209.024C66.9921 200.852 66.0937 192.52 66.0937 184.262C66.0937 119.813 118.532 67.3715 182.984 67.3715C230.566 67.3715 273.011 95.8205 291.114 139.849C292.246 142.599 294.746 144.548 297.7 144.966C299.227 145.184 300.696 145.61 302.192 145.938C303.973 146.329 305.754 146.727 307.473 147.267C308.774 147.677 310.028 148.192 311.285 148.685C312.586 149.185 313.895 149.657 315.149 150.243C316.981 151.099 318.739 152.091 320.469 153.114C321.09 153.477 321.735 153.798 322.34 154.177C324.598 155.622 326.766 157.208 328.813 158.927C328.887 158.989 328.969 159.04 329.043 159.099C335.555 164.602 340.934 171.435 344.75 179.193C344.789 179.279 344.844 179.349 344.883 179.427C346.153 182.04 347.25 184.763 348.153 187.575C348.336 188.157 348.582 188.708 348.887 189.228C349.789 190.778 351.172 192.021 352.848 192.739C353.395 192.974 353.957 193.142 354.528 193.255C354.735 193.294 354.942 193.294 355.149 193.317C355.485 193.357 355.821 193.419 356.157 193.419C356.184 193.419 356.211 193.407 356.246 193.407C356.684 193.403 357.121 193.333 357.551 193.263C357.723 193.235 357.899 193.235 358.071 193.196C358.668 193.056 359.262 192.857 359.828 192.575C361.305 191.857 362.809 191.243 364.324 190.689C364.93 190.47 365.551 190.302 366.168 190.107C367.082 189.814 367.992 189.528 368.918 189.302C369.657 189.118 370.403 188.978 371.149 188.833C371.977 188.669 372.813 188.521 373.653 188.403C374.426 188.298 375.192 188.212 375.973 188.146C376.813 188.071 377.66 188.028 378.504 188.001C379.317 187.978 380.129 187.95 380.942 187.974C381.532 187.985 382.106 188.028 382.688 188.064C383.692 188.126 384.692 188.193 385.696 188.321C386.047 188.364 386.391 188.427 386.739 188.485C387.961 188.669 389.18 188.884 390.395 189.169C390.512 189.196 390.625 189.232 390.742 189.259C392.125 189.595 393.504 189.985 394.871 190.45C413.019 196.677 426.117 213.868 426.117 234.102C426.117 256.086 410.48 275.137 388.937 279.383C386.164 279.93 383.851 281.836 382.781 284.45C375.578 302.091 358.629 313.497 339.593 313.497C337.273 313.497 334.824 313.266 331.886 312.77C327.312 311.973 322.972 315.071 322.203 319.645C321.425 324.219 324.503 328.559 329.078 329.329C332.964 329.989 336.308 330.297 339.594 330.297C363.992 330.297 385.883 316.52 396.52 294.848C423.653 287.47 442.911 262.59 442.911 234.098C442.922 210.5 429.856 189.914 410.587 179.133L410.585 179.13ZM356.366 97.9267C359.319 97.9267 362.307 98.208 365.237 98.7627C390.839 103.618 407.717 128.404 402.87 154.013C401.581 160.833 398.772 167.279 394.671 172.908C394.542 172.88 394.413 172.873 394.292 172.841C389.679 171.759 384.89 171.126 379.952 171.126C379.397 171.126 378.85 171.177 378.296 171.189C377.858 171.201 377.429 171.216 376.991 171.24C374.495 171.357 372.018 171.603 369.569 172.013C369.233 172.068 368.901 172.146 368.561 172.209C366.026 172.677 363.511 173.271 361.042 174.064C361.018 174.068 360.991 174.076 360.968 174.08C358.386 168.341 355.1 163.037 351.311 158.158C351.284 158.122 351.257 158.091 351.222 158.052C349.362 155.662 347.358 153.404 345.241 151.255C345.151 151.165 345.061 151.083 344.972 150.997C342.94 148.954 340.8 147.029 338.554 145.22C338.307 145.025 338.061 144.833 337.815 144.642C335.764 143.029 333.643 141.517 331.436 140.107C330.921 139.775 330.401 139.458 329.874 139.138C327.975 137.99 326.034 136.927 324.038 135.939C323.143 135.49 322.253 135.048 321.339 134.638C319.737 133.919 318.108 133.279 316.456 132.665C315.136 132.165 313.811 131.673 312.464 131.247C312.1 131.134 311.757 130.974 311.393 130.868C317.546 111.47 335.639 97.9275 356.366 97.9275L356.366 97.9267Z" fill="#000000" fill-rule="nonzero" opacity="1" stroke="none"/>
</g>
</g>
</svg>
