<?xml version="1.0" encoding="UTF-8" standalone="no"?>
<!DOCTYPE svg PUBLIC "-//W3C//DTD SVG 1.1//EN" "http://www.w3.org/Graphics/SVG/1.1/DTD/svg11.dtd">
<!-- Created with Vectornator (http://vectornator.io/) -->
<svg height="100%" stroke-miterlimit="10" style="fill-rule:nonzero;clip-rule:evenodd;stroke-linecap:round;stroke-linejoin:round;" version="1.1" viewBox="0 0 500 500" width="100%" xml:space="preserve" xmlns="http://www.w3.org/2000/svg" xmlns:vectornator="http://vectornator.io" xmlns:xlink="http://www.w3.org/1999/xlink">
<defs/>
<g id="Untitled" vectornator:layerName="Untitled">
<g opacity="1">
<path d="M295.438 385.49L295.438 456.207L240.357 456.207L240.357 385.49" fill="none" opacity="1" stroke="#000000" stroke-linecap="round" stroke-linejoin="round" stroke-width="12"/>
<path d="M295.438 385.49L295.438 456.207L240.357 456.207L240.357 385.49" fill="none" opacity="1" stroke="#000000" stroke-linecap="round" stroke-linejoin="round" stroke-width="12"/>
<path d="M240.356 266.845L240.356 124.446L262.048 80.4043C264.438 75.5512 271.357 75.5512 273.747 80.4043L295.438 124.446L295.438 266.845" fill="none" opacity="1" stroke="#000000" stroke-linecap="round" stroke-linejoin="round" stroke-width="12"/>
<path d="M240.356 266.845L240.356 124.446L262.048 80.4043C264.438 75.5512 271.357 75.5512 273.747 80.4043L295.438 124.446L295.438 266.845" fill="none" opacity="1" stroke="#000000" stroke-linecap="round" stroke-linejoin="round" stroke-width="12"/>
<path d="M239.019 124.91L157.114 124.91" fill="none" opacity="1" stroke="#000000" stroke-linecap="round" stroke-linejoin="round" stroke-width="12"/>
<path d="M383.466 125.132L295.438 125.132" fill="none" opacity="1" stroke="#000000" stroke-linecap="round" stroke-linejoin="round" stroke-width="12"/>
<path d="M377.362 490.337L158.433 490.337L158.433 465.988C158.433 460.586 162.812 456.207 168.214 456.207L367.581 456.207C372.983 456.207 377.362 460.586 377.362 465.988L377.362 490.337Z" fill="none" opacity="1" stroke="#000000" stroke-linecap="round" stroke-linejoin="round" stroke-width="12"/>
<path d="M373.685 385.49L162.11 385.49C156.707 385.49 152.328 381.111 152.328 375.709L152.328 276.626C152.328 271.224 156.707 266.845 162.11 266.845L373.685 266.845C379.087 266.845 383.467 271.224 383.467 276.626L383.467 375.709C383.467 381.111 379.087 385.49 373.685 385.49Z" fill="none" opacity="1" stroke="#000000" stroke-linecap="round" stroke-linejoin="round" stroke-width="12"/>
<path d="M131.908 77.6104L131.908 77.6104L131.908 59.2314C131.908 55.6295 128.989 52.71 125.388 52.71L98.7019 52.71C95.1009 52.71 92.1815 55.6295 92.1815 59.2314L92.1815 77.6104L66.9755 124.911L92.1815 172.211L92.1815 190.59C92.1815 194.192 95.1009 197.112 98.7019 197.112L125.388 197.112C128.989 197.112 131.908 194.192 131.908 190.59L131.908 172.211L157.114 124.911L131.908 77.6104Z" fill="none" opacity="1" stroke="#000000" stroke-linecap="round" stroke-linejoin="round" stroke-width="12"/>
<path d="M112.045 52.7094L112.045 13.0808" fill="none" opacity="1" stroke="#000000" stroke-linecap="round" stroke-linejoin="round" stroke-width="12"/>
<path d="M112.045 236.74L112.045 197.111" fill="none" opacity="1" stroke="#000000" stroke-linecap="round" stroke-linejoin="round" stroke-width="12"/>
<path d="M59.3102 30.9975L160.439 30.9975" fill="none" opacity="1" stroke="#000000" stroke-linecap="round" stroke-linejoin="round" stroke-width="12"/>
<path d="M59.3102 30.9975C59.3102 42.78 49.7586 52.3316 37.9762 52.3316C26.1937 52.3316 16.6421 42.78 16.6421 30.9975C16.6421 19.2151 26.1937 9.66347 37.9762 9.66347C49.7586 9.66347 59.3102 19.2151 59.3102 30.9975" fill="none" opacity="1" stroke="#000000" stroke-linecap="round" stroke-linejoin="round" stroke-width="12"/>
<path d="M59.3102 30.9975C59.3102 42.78 49.7586 52.3316 37.9762 52.3316C26.1937 52.3316 16.6421 42.78 16.6421 30.9975C16.6421 19.2151 26.1937 9.66347 37.9762 9.66347C49.7586 9.66347 59.3102 19.2151 59.3102 30.9975Z" fill="none" opacity="1" stroke="#000000" stroke-linecap="round" stroke-linejoin="round" stroke-width="12"/>
<path d="M203.107 30.9975C203.107 42.78 193.555 52.3316 181.773 52.3316C169.99 52.3316 160.439 42.78 160.439 30.9975C160.439 19.2151 169.99 9.66347 181.773 9.66347C193.555 9.66347 203.107 19.2151 203.107 30.9975" fill="none" opacity="1" stroke="#000000" stroke-linecap="round" stroke-linejoin="round" stroke-width="12"/>
<path d="M203.107 30.9975C203.107 42.78 193.555 52.3316 181.773 52.3316C169.99 52.3316 160.439 42.78 160.439 30.9975C160.439 19.2151 169.99 9.66347 181.773 9.66347C193.555 9.66347 203.107 19.2151 203.107 30.9975Z" fill="none" opacity="1" stroke="#000000" stroke-linecap="round" stroke-linejoin="round" stroke-width="12"/>
<path d="M181.773 219.655L20.9828 219.655C18.5855 219.655 16.6422 221.598 16.6422 223.995L16.6422 264.354C16.6422 266.751 18.5855 268.695 20.9828 268.695L30.2363 268.695C35.9086 268.695 41.3552 266.475 45.4106 262.509L89.2334 219.655" fill="none" opacity="1" stroke="#000000" stroke-linecap="round" stroke-linejoin="round" stroke-width="12"/>
<path d="M181.773 219.655L20.9828 219.655C18.5855 219.655 16.6422 221.598 16.6422 223.995L16.6422 264.354C16.6422 266.751 18.5855 268.695 20.9828 268.695L30.2363 268.695C35.9086 268.695 41.3552 266.475 45.4106 262.509L89.2334 219.655" fill="none" opacity="1" stroke="#000000" stroke-linecap="round" stroke-linejoin="round" stroke-width="12"/>
<path d="M393.247 162.591L473.577 162.591C478.979 162.591 483.358 158.212 483.358 152.81L483.358 62.1126C483.358 56.7106 478.979 52.3315 473.577 52.3315L393.247 52.3315C387.845 52.3315 383.466 56.7106 383.466 62.1126L383.466 152.81C383.466 158.212 387.845 162.591 393.247 162.591Z" fill="none" opacity="1" stroke="#000000" stroke-linecap="round" stroke-linejoin="round" stroke-width="12"/>
<path d="M396.23 236.955L470.594 236.955L470.594 162.591L396.23 162.591L396.23 236.955Z" fill="none" opacity="1" stroke="#000000" stroke-linecap="round" stroke-linejoin="round" stroke-width="12"/>
<path d="M396.23 236.955L470.594 236.955L470.594 162.591L396.23 162.591L396.23 236.955Z" fill="none" opacity="1" stroke="#000000" stroke-linecap="round" stroke-linejoin="round" stroke-width="12"/>
<path d="M396.23 187.217L470.594 187.217" fill="none" opacity="1" stroke="#000000" stroke-linecap="round" stroke-linejoin="round" stroke-width="12"/>
<path d="M396.23 212.329L470.594 212.329" fill="none" opacity="1" stroke="#000000" stroke-linecap="round" stroke-linejoin="round" stroke-width="12"/>
<path d="M171.89 326.168L363.905 326.168" fill="none" opacity="1" stroke="#000000" stroke-linecap="round" stroke-linejoin="round" stroke-width="12"/>
<path d="M267.899 286.407L267.899 365.928" fill="none" opacity="1" stroke="#000000" stroke-linecap="round" stroke-linejoin="round" stroke-width="12"/>
<path d="M208.38 286.407L208.38 365.928" fill="none" opacity="1" stroke="#000000" stroke-linecap="round" stroke-linejoin="round" stroke-width="12"/>
<path d="M327.417 286.407L327.417 365.928" fill="none" opacity="1" stroke="#000000" stroke-linecap="round" stroke-linejoin="round" stroke-width="12"/>
</g>
</g>
</svg>
