<?xml version="1.0" encoding="UTF-8" standalone="no"?>
<!DOCTYPE svg PUBLIC "-//W3C//DTD SVG 1.1//EN" "http://www.w3.org/Graphics/SVG/1.1/DTD/svg11.dtd">
<!-- Created with Vectornator (http://vectornator.io/) -->
<svg height="100%" stroke-miterlimit="10" style="fill-rule:nonzero;clip-rule:evenodd;stroke-linecap:round;stroke-linejoin:round;" version="1.1" viewBox="0 0 704 1000" width="100%" xml:space="preserve" xmlns="http://www.w3.org/2000/svg" xmlns:vectornator="http://vectornator.io" xmlns:xlink="http://www.w3.org/1999/xlink">
<defs/>
<g id="Untitled" vectornator:layerName="Untitled">
<path d="M55.7873 999.948C37.5637 999.384 20.7051 990.154 10.4211 975.106C0.129483 960.059-2.36364 941.004 3.72091 923.819L56.7004 668.125L56.693 668.125C59.1713 655.607 65.9384 644.35 75.8288 636.293C85.7196 628.227 98.1178 623.879 110.873 623.975L184.628 623.975C140.753 568.251 71.3915 487.409 55.8838 440.123C-34.7214 245.422 136.006-11.2794 352.247 0.383615C613.203-2.91832 769.724 310.518 604.276 516.274L520.14 623.983L593.539 623.983C606.294 623.879 618.693 628.235 628.584 636.293C638.474 644.358 645.242 655.615 647.719 668.133L702.545 933.439C705.669 949.696 701.44 966.494 690.992 979.331C680.538 992.168 664.948 999.721 648.394 999.958C648.282 1000.09 55.9142 999.854 55.8003 999.958L55.7873 999.948ZM283.312 966.707L648.4 966.707C654.989 966.536 661.177 963.486 665.332 958.367C669.488 953.24 671.187 946.554 669.985 940.069L630.608 749.471L511.599 823.894L511.599 823.909L293.249 960.481L293.219 960.496L283.312 966.707ZM41.275 960.83C45.2596 964.592 50.5352 966.692 56.0111 966.707L220.787 966.707L261.463 941.175L196.346 837.347L34.4629 939.906C33.2535 947.571 35.7911 955.347 41.2744 960.832L41.275 960.83ZM224.527 819.679L289.645 923.529L479.901 804.505L435.203 732.857C414.442 759.45 385.772 796.067 364.959 822.684L364.952 822.684C361.82 826.727 356.99 829.087 351.87 829.08C332.252 825.896 317.36 790.599 299.603 772.48L224.527 819.679ZM110.875 657.218C100.376 657.129 91.2932 664.527 89.2531 674.833L43.94 893.411L192.749 800.373L192.778 800.373L279.094 746.096C255.164 715.251 229.255 681.943 209.887 657.211L110.875 657.218ZM456.987 704.974L508.08 786.876L623.417 714.745C623.373 714.552 615.174 674.878 615.137 674.737L615.151 674.737C613.044 664.483 603.992 657.152 593.529 657.219L494.19 657.219C483.156 671.421 470.395 687.782 456.986 704.975L456.987 704.974ZM230.203 629.075C262.919 670.494 314.694 737.511 351.906 785.103C390.266 735.938 434.254 679.843 472.666 630.418L472.695 630.403C475.73 629.253 575.558 497.347 578.104 495.731C726.578 313.17 585.205 29.6453 352.535 33.5963C158.252 23.3568 5.32206 254.188 86.8875 428.26C105.119 480.274 190.924 574.783 230.204 629.077L230.203 629.075Z" fill="#000000" fill-rule="nonzero" opacity="1" stroke="none"/>
<g opacity="1">
<g opacity="1">
<path d="M328.159 522.753L328.226 522.753L328.159 522.753ZM309.493 482.145L295.428 496.712C287.499 504.927 287.499 518.293 295.428 526.508C302.965 534.317 316.008 534.323 323.566 526.508C331.493 518.293 331.493 504.927 323.566 496.712L309.493 482.145ZM309.493 545.901C300.545 545.901 292.141 542.309 285.839 535.777C272.968 522.453 272.968 500.765 285.839 487.441L304.699 467.917C307.214 465.315 311.783 465.315 314.295 467.917L333.155 487.441C346.019 500.765 346.019 522.453 333.155 535.777C326.847 542.308 318.451 545.901 309.495 545.901L309.493 545.901Z" fill="#000000" fill-rule="evenodd" opacity="1" stroke="#000000" stroke-linecap="butt" stroke-linejoin="round" stroke-width="5"/>
<path d="M402.252 558.45L388.187 573.015C380.252 581.232 380.252 594.596 388.187 602.813C395.724 610.623 408.769 610.628 416.316 602.813C424.254 594.596 424.254 581.232 416.316 573.015L402.252 558.45ZM402.252 622.211C393.304 622.211 384.9 618.61 378.592 612.082C365.727 598.757 365.727 577.07 378.592 563.745L397.457 544.218C399.972 541.617 404.533 541.617 407.047 544.218L425.915 563.745C438.78 577.07 438.78 598.757 425.915 612.082C419.605 618.61 411.203 622.211 402.252 622.211Z" fill="#000000" fill-rule="evenodd" opacity="1" stroke="#000000" stroke-linecap="butt" stroke-linejoin="round" stroke-width="5"/>
</g>
<g opacity="1">
<path d="M362.545 451.719C357.665 451.719 353.722 448.733 353.722 445.053C353.722 441.373 357.665 438.385 362.545 438.385C377.135 438.385 389.007 429.412 389.007 418.385C389.007 407.358 377.135 398.385 362.545 398.385L221.412 398.385C216.535 398.385 212.592 395.4 212.592 391.72C212.592 388.04 216.535 385.054 221.412 385.054L362.545 385.054C386.861 385.054 406.645 400.007 406.645 418.385C406.645 436.766 386.861 451.719 362.545 451.719" fill="#000000" fill-rule="evenodd" opacity="1" stroke="#000000" stroke-linecap="butt" stroke-linejoin="round" stroke-width="5"/>
<path d="M362.202 354.033L158.455 354.033C153.758 354.033 149.963 351.045 149.963 347.365C149.963 343.685 153.758 340.699 158.455 340.699L362.202 340.699C376.245 340.699 387.671 331.727 387.671 320.7C387.671 309.673 376.245 300.7 362.202 300.7C357.505 300.7 353.711 297.715 353.711 294.034C353.711 290.354 357.505 287.366 362.202 287.366C385.606 287.366 404.647 302.321 404.647 320.7C404.647 339.078 385.606 354.033 362.202 354.033" fill="#000000" fill-rule="evenodd" opacity="1" stroke="#000000" stroke-linecap="butt" stroke-linejoin="round" stroke-width="5"/>
</g>
<g opacity="1">
<path d="M454.965 285.672C451.756 285.672 448.943 283.334 448.448 280.059C447.901 276.452 450.377 273.086 453.981 272.536C471.067 269.94 488.255 272.425 488.983 272.536C492.587 273.072 495.077 276.427 494.549 280.031C494.021 283.638 490.619 286.128 487.053 285.598C486.896 285.573 471.045 283.307 455.971 285.598C455.634 285.65 455.297 285.672 454.965 285.672" fill="#000000" fill-rule="evenodd" opacity="1" stroke="#000000" stroke-linecap="butt" stroke-linejoin="round" stroke-width="5"/>
<path d="M316.301 272.463C312.656 272.463 309.698 269.505 309.698 265.86C309.698 240.369 288.961 219.632 263.47 219.632C237.983 219.632 217.245 240.369 217.245 265.86C217.245 269.505 214.288 272.463 210.642 272.463C206.997 272.463 204.037 269.505 204.037 265.86C204.037 233.092 230.703 206.426 263.47 206.426C296.238 206.426 322.904 233.092 322.904 265.86C322.904 269.505 319.947 272.463 316.301 272.463" fill="#000000" fill-rule="evenodd" opacity="1" stroke="#000000" stroke-linecap="butt" stroke-linejoin="round" stroke-width="5"/>
<path d="M474.791 430.952C471.145 430.952 468.188 427.995 468.188 424.349C468.188 420.704 471.145 417.744 474.791 417.744C511.204 417.744 540.827 388.035 540.827 351.522C540.827 319.719 517.597 291.356 486.797 285.558L481.488 284.554L481.416 279.151C480.7 224.485 436.503 180.01 382.89 180.01C349.827 180.01 316.575 197.873 298.176 225.517L294.523 231.011L289.023 227.352C281.428 222.302 272.591 219.633 263.465 219.633C237.978 219.633 217.24 240.37 217.24 265.861C217.24 266.413 210.782 272.049 210.782 272.868C210.782 272.868 204.032 266.703 204.032 265.858C204.032 233.09 230.698 206.424 263.465 206.424C273.048 206.424 282.378 208.707 290.791 213.079C312.308 184.394 347.03 166.802 382.885 166.802C441.956 166.802 490.948 214.315 494.429 273.74C528.756 282.758 554.028 315.269 554.028 351.52C554.028 395.315 518.48 430.949 474.783 430.949" fill="#000000" fill-rule="evenodd" opacity="1" stroke="#000000" stroke-linecap="butt" stroke-linejoin="round" stroke-width="5"/>
<path d="M448.378 133.784C444.733 133.784 441.772 130.827 441.772 127.182L441.772 100.765C441.772 97.1193 444.733 94.1619 448.378 94.1619C452.023 94.1619 454.981 97.1193 454.981 100.765L454.981 127.182C454.981 130.827 452.023 133.784 448.378 133.784" fill="#000000" fill-rule="evenodd" opacity="1" stroke="#000000" stroke-linecap="butt" stroke-linejoin="round" stroke-width="5"/>
<path d="M547.434 206.428L521.017 206.428C517.372 206.428 514.414 203.468 514.414 199.822C514.414 196.177 517.372 193.219 521.017 193.219L547.434 193.219C551.079 193.219 554.037 196.177 554.037 199.822C554.037 203.468 551.079 206.428 547.434 206.428" fill="#000000" fill-rule="evenodd" opacity="1" stroke="#000000" stroke-linecap="butt" stroke-linejoin="round" stroke-width="5"/>
<path d="M514.109 175.494C511.632 175.494 509.255 174.093 508.133 171.705C506.574 168.402 507.995 164.471 511.295 162.913L535.194 151.666C538.491 150.108 542.427 151.528 543.977 154.831C545.536 158.131 544.115 162.061 540.815 163.62L516.917 174.866C516.01 175.295 515.054 175.494 514.109 175.494" fill="#000000" fill-rule="evenodd" opacity="1" stroke="#000000" stroke-linecap="butt" stroke-linejoin="round" stroke-width="5"/>
<path d="M417.451 140.697C414.975 140.697 412.598 139.298 411.476 136.908L400.23 113.009C398.671 109.706 400.091 105.771 403.391 104.22C406.689 102.667 410.625 104.082 412.175 107.382L423.421 131.281C424.98 134.583 423.559 138.514 420.259 140.07C419.353 140.501 418.397 140.697 417.451 140.697" fill="#000000" fill-rule="evenodd" opacity="1" stroke="#000000" stroke-linecap="butt" stroke-linejoin="round" stroke-width="5"/>
<path d="M487.215 145.044C486.007 145.044 484.786 144.715 483.688 144.022C480.612 142.073 479.695 137.991 481.64 134.906L495.766 112.585C497.715 109.509 501.797 108.586 504.882 110.532C507.963 112.489 508.875 116.568 506.927 119.647L492.801 141.974C491.546 143.955 489.407 145.044 487.215 145.044" fill="#000000" fill-rule="evenodd" opacity="1" stroke="#000000" stroke-linecap="butt" stroke-linejoin="round" stroke-width="5"/>
<path d="M532.073 259.401C530.865 259.401 529.644 259.07 528.546 258.376L506.226 244.253C503.141 242.304 502.224 238.222 504.172 235.137C506.126 232.053 510.2 231.13 513.285 233.092L535.611 247.215C538.69 249.164 539.608 253.246 537.659 256.331C536.404 258.31 534.265 259.401 532.073 259.401" fill="#000000" fill-rule="evenodd" opacity="1" stroke="#000000" stroke-linecap="butt" stroke-linejoin="round" stroke-width="5"/>
<path d="M386.992 167.584C385.781 167.584 384.56 167.252 383.465 166.561L361.144 152.435C358.06 150.486 357.142 146.404 359.091 143.32C361.045 140.238 365.119 139.32 368.203 141.274L390.53 155.4C393.609 157.346 394.526 161.428 392.578 164.513C391.323 166.495 389.184 167.584 386.992 167.584" fill="#000000" fill-rule="evenodd" opacity="1" stroke="#000000" stroke-linecap="butt" stroke-linejoin="round" stroke-width="5"/>
<path d="M486.26 268.323C484.04 268.323 481.868 267.207 480.619 265.173C478.717 262.063 479.687 258 482.799 256.085C502.596 243.949 514.412 222.916 514.412 199.821C514.412 163.41 484.787 133.785 448.373 133.785C420.995 133.785 396.858 150.307 386.886 175.878C385.56 179.272 381.743 180.955 378.335 179.629C374.941 178.307 373.258 174.477 374.585 171.077C386.543 140.402 415.506 120.576 448.374 120.576C492.071 120.576 527.619 156.125 527.619 199.821C527.619 227.545 513.449 252.784 489.707 267.352C488.632 268.013 487.435 268.323 486.261 268.323" fill="#000000" fill-rule="evenodd" opacity="1" stroke="#000000" stroke-linecap="butt" stroke-linejoin="round" stroke-width="5"/>
</g>
</g>
</g>
</svg>
