<?xml version="1.0" encoding="UTF-8" standalone="no"?>
<!DOCTYPE svg PUBLIC "-//W3C//DTD SVG 1.1//EN" "http://www.w3.org/Graphics/SVG/1.1/DTD/svg11.dtd">
<!-- Created with Vectornator (http://vectornator.io/) -->
<svg height="100%" stroke-miterlimit="10" style="fill-rule:nonzero;clip-rule:evenodd;stroke-linecap:round;stroke-linejoin:round;" version="1.1" viewBox="0 0 1020 1020" width="100%" xml:space="preserve" xmlns="http://www.w3.org/2000/svg" xmlns:xlink="http://www.w3.org/1999/xlink">
<defs/>
<g id="Untitled">
<path d="M261.254 106.214C336.556 58.8415 425.688 31.44 521.22 31.44C570.185 31.44 617.468 38.6388 662.07 52.0354" fill="none" opacity="1" stroke="#000000" stroke-dasharray="124.61798858642578" stroke-linecap="round" stroke-linejoin="round" stroke-width="12"/>
<path d="M196.454 885.74C95.7693 796.193 32.3425 665.662 32.3425 520.318C32.3425 485.696 35.9412 451.915 42.7853 419.328" fill="none" opacity="1" stroke="#000000" stroke-dasharray="121.27100372314453" stroke-linecap="round" stroke-linejoin="round" stroke-width="12"/>
<path d="M1009.66 501.89C1009.97 510.182 1010.07 518.526 1009.95 526.916C1008.03 668.596 946.018 795.379 848.499 883.35" fill="none" opacity="1" stroke="#000000" stroke-dasharray="127.56800842285156" stroke-linecap="round" stroke-linejoin="round" stroke-width="12"/>
<path d="M288.796 495.266L288.796 565.983L233.715 565.983L233.715 495.266" fill="none" opacity="1" stroke="#000000" stroke-linecap="round" stroke-linejoin="round" stroke-width="12"/>
<path d="M288.796 495.266L288.796 565.983L233.715 565.983L233.715 495.266" fill="none" opacity="1" stroke="#000000" stroke-linecap="round" stroke-linejoin="round" stroke-width="12"/>
<path d="M233.715 376.622L233.715 234.223L255.406 190.181C257.796 185.328 264.715 185.328 267.105 190.181L288.796 234.223L288.796 376.622" fill="none" opacity="1" stroke="#000000" stroke-linecap="round" stroke-linejoin="round" stroke-width="12"/>
<path d="M233.715 376.622L233.715 234.223L255.406 190.181C257.796 185.328 264.715 185.328 267.105 190.181L288.796 234.223L288.796 376.622" fill="none" opacity="1" stroke="#000000" stroke-linecap="round" stroke-linejoin="round" stroke-width="12"/>
<path d="M232.377 234.687L150.472 234.687" fill="none" opacity="1" stroke="#000000" stroke-linecap="round" stroke-linejoin="round" stroke-width="12"/>
<path d="M376.824 234.908L288.796 234.908" fill="none" opacity="1" stroke="#000000" stroke-linecap="round" stroke-linejoin="round" stroke-width="12"/>
<path d="M370.72 600.113L151.791 600.113L151.791 575.764C151.791 570.362 156.17 565.983 161.572 565.983L360.939 565.983C366.341 565.983 370.72 570.362 370.72 575.764L370.72 600.113Z" fill="none" opacity="1" stroke="#000000" stroke-linecap="round" stroke-linejoin="round" stroke-width="12"/>
<path d="M367.043 495.266L155.468 495.266C150.066 495.266 145.686 490.887 145.686 485.485L145.686 386.402C145.686 381 150.066 376.621 155.468 376.621L367.043 376.621C372.445 376.621 376.825 381 376.825 386.402L376.825 485.485C376.825 490.887 372.445 495.266 367.043 495.266Z" fill="none" opacity="1" stroke="#000000" stroke-linecap="round" stroke-linejoin="round" stroke-width="12"/>
<path d="M125.266 187.387L125.266 187.387L125.266 169.008C125.266 165.406 122.347 162.486 118.746 162.486L92.0599 162.486C88.4589 162.486 85.5395 165.406 85.5395 169.008L85.5395 187.387L60.3336 234.687L85.5395 281.988L85.5395 300.367C85.5395 303.969 88.4589 306.888 92.0599 306.888L118.746 306.888C122.347 306.888 125.266 303.969 125.266 300.367L125.266 281.988L150.472 234.687L125.266 187.387Z" fill="none" opacity="1" stroke="#000000" stroke-linecap="round" stroke-linejoin="round" stroke-width="12"/>
<path d="M105.403 162.486L105.403 122.857" fill="none" opacity="1" stroke="#000000" stroke-linecap="round" stroke-linejoin="round" stroke-width="12"/>
<path d="M105.403 346.516L105.403 306.888" fill="none" opacity="1" stroke="#000000" stroke-linecap="round" stroke-linejoin="round" stroke-width="12"/>
<path d="M52.6683 140.774L153.797 140.774" fill="none" opacity="1" stroke="#000000" stroke-linecap="round" stroke-linejoin="round" stroke-width="12"/>
<path d="M52.6683 140.774C52.6683 152.556 43.1166 162.108 31.3342 162.108C19.5517 162.108 10.0001 152.556 10.0001 140.774C10.0001 128.991 19.5517 119.44 31.3342 119.44C43.1166 119.44 52.6683 128.991 52.6683 140.774" fill="none" opacity="1" stroke="#000000" stroke-linecap="round" stroke-linejoin="round" stroke-width="12"/>
<path d="M52.6683 140.774C52.6683 152.556 43.1166 162.108 31.3342 162.108C19.5517 162.108 10.0001 152.556 10.0001 140.774C10.0001 128.991 19.5517 119.44 31.3342 119.44C43.1166 119.44 52.6683 128.991 52.6683 140.774Z" fill="none" opacity="1" stroke="#000000" stroke-linecap="round" stroke-linejoin="round" stroke-width="12"/>
<path d="M196.465 140.774C196.465 152.556 186.913 162.108 175.131 162.108C163.348 162.108 153.797 152.556 153.797 140.774C153.797 128.991 163.348 119.44 175.131 119.44C186.913 119.44 196.465 128.991 196.465 140.774" fill="none" opacity="1" stroke="#000000" stroke-linecap="round" stroke-linejoin="round" stroke-width="12"/>
<path d="M196.465 140.774C196.465 152.556 186.913 162.108 175.131 162.108C163.348 162.108 153.797 152.556 153.797 140.774C153.797 128.991 163.348 119.44 175.131 119.44C186.913 119.44 196.465 128.991 196.465 140.774Z" fill="none" opacity="1" stroke="#000000" stroke-linecap="round" stroke-linejoin="round" stroke-width="12"/>
<path d="M175.131 329.431L14.3408 329.431C11.9435 329.431 10.0002 331.374 10.0002 333.772L10.0002 374.13C10.0002 376.528 11.9435 378.471 14.3408 378.471L23.5943 378.471C29.2667 378.471 34.7132 376.251 38.7687 372.285L82.5914 329.431" fill="none" opacity="1" stroke="#000000" stroke-linecap="round" stroke-linejoin="round" stroke-width="12"/>
<path d="M175.131 329.431L14.3408 329.431C11.9435 329.431 10.0002 331.374 10.0002 333.772L10.0002 374.13C10.0002 376.528 11.9435 378.471 14.3408 378.471L23.5943 378.471C29.2667 378.471 34.7132 376.251 38.7687 372.285L82.5914 329.431" fill="none" opacity="1" stroke="#000000" stroke-linecap="round" stroke-linejoin="round" stroke-width="12"/>
<path d="M386.605 272.368L466.935 272.368C472.337 272.368 476.716 267.988 476.716 262.586L476.716 171.889C476.716 166.487 472.337 162.108 466.935 162.108L386.605 162.108C381.203 162.108 376.824 166.487 376.824 171.889L376.824 262.586C376.824 267.988 381.203 272.368 386.605 272.368Z" fill="none" opacity="1" stroke="#000000" stroke-linecap="round" stroke-linejoin="round" stroke-width="12"/>
<path d="M389.588 346.731L463.952 346.731L463.952 272.367L389.588 272.367L389.588 346.731Z" fill="none" opacity="1" stroke="#000000" stroke-linecap="round" stroke-linejoin="round" stroke-width="12"/>
<path d="M389.588 346.731L463.952 346.731L463.952 272.367L389.588 272.367L389.588 346.731Z" fill="none" opacity="1" stroke="#000000" stroke-linecap="round" stroke-linejoin="round" stroke-width="12"/>
<path d="M389.588 296.994L463.952 296.994" fill="none" opacity="1" stroke="#000000" stroke-linecap="round" stroke-linejoin="round" stroke-width="12"/>
<path d="M389.588 322.105L463.952 322.105" fill="none" opacity="1" stroke="#000000" stroke-linecap="round" stroke-linejoin="round" stroke-width="12"/>
<path d="M165.249 435.944L357.263 435.944" fill="none" opacity="1" stroke="#000000" stroke-linecap="round" stroke-linejoin="round" stroke-width="12"/>
<path d="M261.257 396.184L261.257 475.704" fill="none" opacity="1" stroke="#000000" stroke-linecap="round" stroke-linejoin="round" stroke-width="12"/>
<path d="M201.738 396.184L201.738 475.704" fill="none" opacity="1" stroke="#000000" stroke-linecap="round" stroke-linejoin="round" stroke-width="12"/>
<path d="M320.775 396.184L320.775 475.704" fill="none" opacity="1" stroke="#000000" stroke-linecap="round" stroke-linejoin="round" stroke-width="12"/>
<path d="M672.76 268.646C668.249 266.265 664.099 263.477 660.239 260.422L636.019 270.779C630.729 265.427 625.894 259.478 621.721 252.844C617.548 246.211 614.277 239.277 611.742 232.192L631.574 214.832C629.376 205.156 628.973 195.072 630.454 185.056L609.352 169.243C611.341 161.986 614.076 154.824 617.734 147.893C621.392 140.963 625.762 134.663 630.631 128.926L655.593 137.425C663.027 130.551 671.58 125.194 680.809 121.549L683.95 95.3807C691.23 93.4749 698.8 92.2628 706.632 91.9646C714.463 91.6674 722.103 92.3022 729.506 93.6502L734.622 119.49C739.322 120.953 743.965 122.806 748.476 125.187C752.987 127.568 757.137 130.356 760.996 133.411L785.217 123.054C790.507 128.405 795.342 134.355 799.515 140.989C803.688 147.622 806.959 154.555 809.493 161.641L789.662 179.001C791.859 188.677 792.262 198.761 790.782 208.777L811.884 224.59C809.894 231.847 807.159 239.009 803.502 245.94C799.844 252.87 795.473 259.169 790.605 264.907L765.643 256.407C758.209 263.282 749.656 268.64 740.427 272.284L737.285 298.452C730.006 300.358 722.435 301.57 714.604 301.868C706.773 302.165 699.133 301.53 691.73 300.182L686.615 274.342C681.914 272.88 677.271 271.027 672.76 268.646Z" fill="none" opacity="1" stroke="#000000" stroke-linecap="round" stroke-linejoin="round" stroke-width="12"/>
<path d="M680.917 229.766C699.059 246.169 727.064 244.76 743.467 226.618C759.871 208.476 758.462 180.471 740.319 164.067C722.177 147.663 694.172 149.073 677.768 167.215C661.365 185.357 662.774 213.362 680.917 229.766" fill="none" opacity="1" stroke="#000000" stroke-linecap="round" stroke-linejoin="round" stroke-width="12"/>
<path d="M680.917 229.766C699.059 246.169 727.064 244.76 743.467 226.618C759.871 208.476 758.462 180.471 740.319 164.067C722.177 147.663 694.172 149.073 677.768 167.215C661.365 185.357 662.774 213.362 680.917 229.766Z" fill="none" opacity="1" stroke="#000000" stroke-linecap="round" stroke-linejoin="round" stroke-width="12"/>
<path d="M540.465 376.236C540.618 372.046 541.202 367.98 542.087 364.032L525.778 349.795C527.852 343.97 530.532 338.268 533.953 332.811C537.376 327.355 541.342 322.46 545.684 318.056L565.612 326.544C571.991 321.465 579.313 317.569 587.257 315.091L591.435 293.827C597.517 292.711 603.796 292.18 610.232 292.416C616.668 292.651 622.891 293.639 628.876 295.196L631.489 316.709C639.23 319.761 646.248 324.181 652.239 329.713L672.734 322.703C676.742 327.413 680.34 332.585 683.355 338.276C686.369 343.968 688.625 349.851 690.268 355.813L672.963 368.819C673.557 372.821 673.841 376.92 673.688 381.109C673.535 385.298 672.952 389.365 672.066 393.313L688.376 407.549C686.301 413.375 683.621 419.077 680.2 424.533C676.777 429.989 672.811 434.884 668.469 439.289L648.541 430.8C642.162 435.88 634.84 439.776 626.897 442.253L622.718 463.518C616.636 464.634 610.358 465.164 603.922 464.929C597.485 464.694 591.263 463.705 585.278 462.148L582.664 440.635C574.923 437.584 567.905 433.163 561.914 427.631L541.419 434.641C537.411 429.931 533.813 424.759 530.798 419.068C527.784 413.376 525.529 407.493 523.885 401.532L541.191 388.525C540.597 384.523 540.312 380.425 540.465 376.236Z" fill="none" opacity="1" stroke="#000000" stroke-linecap="round" stroke-linejoin="round" stroke-width="12"/>
<path d="M570.864 375.03C568.852 395.03 583.434 412.873 603.434 414.885C623.434 416.896 641.278 402.314 643.289 382.314C645.301 362.315 630.719 344.471 610.719 342.459C590.719 340.448 572.875 355.03 570.864 375.03" fill="none" opacity="1" stroke="#000000" stroke-linecap="round" stroke-linejoin="round" stroke-width="12"/>
<path d="M570.864 375.03C568.852 395.03 583.434 412.873 603.434 414.885C623.434 416.896 641.278 402.314 643.289 382.314C645.301 362.315 630.719 344.471 610.719 342.459C590.719 340.448 572.875 355.03 570.864 375.03Z" fill="none" opacity="1" stroke="#000000" stroke-linecap="round" stroke-linejoin="round" stroke-width="12"/>
<path d="M757.181 465.134C753.88 459.176 751.28 453.028 749.2 446.792L714.562 440.663C712.562 430.816 711.507 420.633 711.692 410.17C711.877 399.708 713.289 389.568 715.636 379.797L750.487 374.892C755.103 362.472 762.024 350.908 770.999 340.797L758.974 307.701C766.503 301.046 774.794 295.041 783.947 289.969C793.101 284.898 802.589 281.052 812.223 278.199L833.907 305.942C847.239 303.694 860.713 303.958 873.691 306.63L896.329 279.682C905.858 282.874 915.204 287.052 924.173 292.443C933.141 297.835 941.216 304.129 948.504 311.046L935.334 343.663C939.517 348.733 943.352 354.198 946.653 360.155C949.953 366.113 952.554 372.262 954.633 378.498L989.272 384.626C991.272 394.473 992.326 404.657 992.142 415.119C991.957 425.582 990.544 435.722 988.197 445.493L953.346 450.398C948.73 462.818 941.81 474.381 932.835 484.492L944.859 517.588C937.331 524.244 929.04 530.249 919.886 535.32C910.733 540.392 901.245 544.237 891.61 547.091L869.926 519.347C856.594 521.596 843.12 521.332 830.142 518.66L807.504 545.607C797.976 542.416 788.63 538.237 779.661 532.846C770.692 527.454 762.618 521.16 755.33 514.243L768.5 481.627C764.317 476.557 760.482 471.092 757.181 465.134Z" fill="none" opacity="1" stroke="#000000" stroke-linecap="round" stroke-linejoin="round" stroke-width="12"/>
<path d="M795.56 430.565C805.457 461.69 838.712 478.898 869.837 469.002C900.962 459.104 918.17 425.85 908.274 394.725C898.376 363.6 865.122 346.391 833.997 356.288C802.872 366.185 785.663 399.44 795.56 430.565" fill="none" opacity="1" stroke="#000000" stroke-linecap="round" stroke-linejoin="round" stroke-width="12"/>
<path d="M795.56 430.565C805.457 461.69 838.712 478.898 869.837 469.002C900.962 459.104 918.17 425.85 908.274 394.725C898.376 363.6 865.122 346.391 833.997 356.288C802.872 366.185 785.663 399.44 795.56 430.565Z" fill="none" opacity="1" stroke="#000000" stroke-linecap="round" stroke-linejoin="round" stroke-width="12"/>
<path d="M665.938 928.927L720.282 928.927C764.749 928.927 800.795 892.881 800.795 848.414C800.795 803.948 764.749 767.902 720.282 767.902C713.178 767.902 706.293 768.831 699.731 770.558C682.351 730.108 642.161 701.774 595.343 701.774C584.498 701.774 574.021 703.326 564.088 706.164C538.884 674.204 499.845 653.661 455.984 653.661C392.526 653.661 339.131 696.622 323.213 755.035C277.694 757.863 241.646 795.655 241.646 841.887C241.646 889.958 280.616 928.927 328.687 928.927" fill="none" opacity="1" stroke="#000000" stroke-linecap="round" stroke-linejoin="round" stroke-width="12"/>
<path d="M665.938 928.927L720.282 928.927C764.749 928.927 800.795 892.881 800.795 848.414C800.795 803.948 764.749 767.902 720.282 767.902C713.178 767.902 706.293 768.831 699.731 770.558C682.351 730.108 642.161 701.774 595.343 701.774C584.498 701.774 574.021 703.326 564.088 706.164C538.884 674.204 499.845 653.661 455.984 653.661C392.526 653.661 339.131 696.622 323.213 755.035C277.694 757.863 241.646 795.655 241.646 841.887C241.646 889.958 280.616 928.927 328.687 928.927" fill="none" opacity="1" stroke="#000000" stroke-linecap="round" stroke-linejoin="round" stroke-width="12"/>
<path d="M405.78 974.182C412.749 961.004 410.351 907.804 410.351 907.804C410.351 907.804 365.029 935.766 358.059 948.944C351.09 962.121 356.123 978.454 369.301 985.423C382.478 992.393 398.811 987.36 405.78 974.182Z" fill="none" opacity="1" stroke="#000000" stroke-linecap="round" stroke-linejoin="round" stroke-width="12"/>
<path d="M512.844 974.182C519.814 961.004 517.416 907.804 517.416 907.804C517.416 907.804 472.093 935.766 465.124 948.944C458.155 962.121 463.188 978.454 476.365 985.423C489.542 992.393 505.875 987.36 512.844 974.182Z" fill="none" opacity="1" stroke="#000000" stroke-linecap="round" stroke-linejoin="round" stroke-width="12"/>
<path d="M619.909 974.182C626.878 961.004 624.481 907.804 624.481 907.804C624.481 907.804 579.158 935.766 572.188 948.944C565.219 962.121 570.252 978.454 583.43 985.423C596.607 992.393 612.94 987.36 619.909 974.182Z" fill="none" opacity="1" stroke="#000000" stroke-linecap="round" stroke-linejoin="round" stroke-width="12"/>
<path d="M466.392 879.76C473.361 866.582 470.963 813.381 470.963 813.381C470.963 813.381 425.641 841.343 418.671 854.521C411.702 867.699 416.735 884.031 429.913 891C443.09 897.97 459.423 892.937 466.392 879.76Z" fill="none" opacity="1" stroke="#000000" stroke-linecap="round" stroke-linejoin="round" stroke-width="12"/>
<path d="M573.456 879.76C580.426 866.582 578.028 813.381 578.028 813.381C578.028 813.381 532.705 841.343 525.736 854.521C518.767 867.699 523.799 884.031 536.977 891C550.155 897.97 566.487 892.937 573.456 879.76Z" fill="none" opacity="1" stroke="#000000" stroke-linecap="round" stroke-linejoin="round" stroke-width="12"/>
<path d="M572.029 544.767L573.689 499.893" fill="none" opacity="1" stroke="#000000" stroke-linecap="round" stroke-linejoin="round" stroke-width="12"/>
<path d="M443.768 592.417L413.212 559.512" fill="none" opacity="1" stroke="#000000" stroke-linecap="round" stroke-linejoin="round" stroke-width="12"/>
<path d="M744.068 730.026L788.942 731.687" fill="none" opacity="1" stroke="#000000" stroke-linecap="round" stroke-linejoin="round" stroke-width="12"/>
<path d="M696.417 601.766L729.322 571.21" fill="none" opacity="1" stroke="#000000" stroke-linecap="round" stroke-linejoin="round" stroke-width="12"/>
<path d="M427.043 656.604C427.043 656.604 446.851 611.386 491.211 587.688C529.011 567.494 589.038 566.942 622.235 579.857C653.985 592.209 695.099 628.6 709.669 667.376C728.212 716.725 715.671 768.889 715.671 768.889" fill="none" opacity="1" stroke="#000000" stroke-linecap="butt" stroke-linejoin="round" stroke-width="12"/>
</g>
</svg>
