<?xml version="1.0" encoding="UTF-8" standalone="no"?>
<!DOCTYPE svg PUBLIC "-//W3C//DTD SVG 1.1//EN" "http://www.w3.org/Graphics/SVG/1.1/DTD/svg11.dtd">
<!-- Created with Vectornator (http://vectornator.io/) -->
<svg height="100%" stroke-miterlimit="10" style="fill-rule:nonzero;clip-rule:evenodd;stroke-linecap:round;stroke-linejoin:round;" version="1.1" viewBox="0 0 560 560" width="100%" xml:space="preserve" xmlns="http://www.w3.org/2000/svg" xmlns:xlink="http://www.w3.org/1999/xlink">
<defs/>
<g id="Untitled">
<g opacity="1">
<path d="M279.86 18.6597C227.34 18.6597 177.88 38.1797 139.38 74.3707C97.6613 113.609 74.6733 166.746 74.6733 223.991C74.6733 258.292 83.2944 292.245 99.6303 322.186C107.841 337.221 117.931 351.202 129.646 363.784L141.376 376.339C161.415 397.749 182.106 419.898 201.399 442.8L280.004 536.171L358.609 442.8C377.89 419.898 398.601 397.749 418.621 376.339L430.355 363.784C442.066 351.202 452.156 337.222 460.343 322.233C460.39 322.147 460.437 322.065 460.48 321.991C478.16 289.503 486.691 252.608 485.152 215.281C480.867 111.641 396.492 25.4505 293.062 19.0705C288.644 18.7971 284.249 18.6565 279.863 18.6565M280.004 559.996C277.25 559.996 274.629 558.782 272.863 556.684L187.117 454.824C168.144 432.293 147.609 410.332 127.75 389.09L115.988 376.508C103.304 362.891 92.367 347.762 83.472 331.531C83.3861 331.398 83.304 331.269 83.2376 331.129C65.4096 298.453 56.0036 261.399 56.0036 223.989C56.0036 162.434 81.7266 102.949 126.602 60.7686C172.102 17.9956 231.682-3.36839 294.212 0.436611C407.072 7.40141 499.132 101.447 503.802 214.507C505.493 255.296 496.141 295.624 476.763 331.127C476.626 331.369 476.485 331.611 476.337 331.838L476.306 331.881C467.806 347.533 456.79 362.795 444.013 376.506L432.255 389.088C412.392 410.33 391.86 432.291 372.884 454.822L287.138 556.682C285.376 558.779 282.763 559.994 280.009 559.994" fill="#000000" fill-rule="evenodd" opacity="1" stroke="none"/>
<path d="M280 104C213.834 104 160.003 157.833 160.003 223.998C160.003 290.162 213.836 343.995 280 343.995C346.165 343.995 399.998 290.162 399.998 223.998C399.998 157.833 346.165 104 280 104M280 358.998C205.563 358.998 145 298.435 145 223.998C145 149.56 205.563 88.9977 280 88.9977C354.437 88.9977 415 149.56 415 223.998C415 298.435 354.437 358.998 280 358.998" fill="#000000" fill-rule="evenodd" opacity="1" stroke="none"/>
</g>
</g>
</svg>
