<?xml version="1.0" encoding="UTF-8" standalone="no"?>
<!DOCTYPE svg PUBLIC "-//W3C//DTD SVG 1.1//EN" "http://www.w3.org/Graphics/SVG/1.1/DTD/svg11.dtd">
<!-- Created with Vectornator (http://vectornator.io/) -->
<svg height="100%" stroke-miterlimit="10" style="fill-rule:nonzero;clip-rule:evenodd;stroke-linecap:round;stroke-linejoin:round;" version="1.1" viewBox="0 0 625 625" width="100%" xml:space="preserve" xmlns="http://www.w3.org/2000/svg" xmlns:vectornator="http://vectornator.io" xmlns:xlink="http://www.w3.org/1999/xlink">
<defs/>
<g id="Untitled" vectornator:layerName="Untitled">
<g opacity="1">
<g opacity="1">
<path d="M319.089 535.743L299.405 556.126C288.296 567.626 288.296 586.329 299.405 597.829C309.952 608.759 328.214 608.767 338.772 597.829C349.877 586.329 349.877 567.626 338.772 556.126L319.089 535.743ZM319.089 624.977C306.562 624.977 294.804 619.938 285.972 610.801C267.968 592.153 267.968 561.801 285.972 543.153L312.378 515.825C315.897 512.185 322.28 512.185 325.8 515.825L352.202 543.153C370.206 561.801 370.206 592.153 352.202 610.801C343.374 619.938 331.612 624.977 319.089 624.977Z" fill="#000000" fill-rule="evenodd" opacity="1" stroke="none"/>
<path d="M438.819 529.653L438.912 529.653L438.819 529.653ZM412.417 461.079L392.733 481.466C381.635 492.962 381.635 511.669 392.733 523.165C403.28 534.095 421.534 534.103 432.112 523.165C443.206 511.669 443.206 492.962 432.112 481.466L412.417 461.079ZM412.417 550.306C399.894 550.306 388.132 545.279 379.312 536.138C361.3 517.49 361.3 487.138 379.312 468.49L405.707 441.166C409.226 437.526 415.621 437.526 419.137 441.166L445.532 468.49C463.536 487.138 463.536 517.49 445.532 536.138C436.704 545.279 424.954 550.306 412.419 550.306L412.417 550.306Z" fill="#000000" fill-rule="evenodd" opacity="1" stroke="none"/>
<path d="M505.749 535.743L486.065 556.126C474.96 567.626 474.96 586.329 486.065 597.829C496.612 608.759 514.87 608.767 525.432 597.829C536.541 586.329 536.541 567.626 525.432 556.126L505.749 535.743ZM505.749 624.977C493.226 624.977 481.464 619.938 472.636 610.801C454.632 592.153 454.632 561.801 472.636 543.153L499.038 515.825C502.557 512.185 508.94 512.185 512.46 515.825L538.866 543.153C556.87 561.801 556.87 592.153 538.866 610.801C530.034 619.938 518.276 624.977 505.749 624.977Z" fill="#000000" fill-rule="evenodd" opacity="1" stroke="none"/>
</g>
<path d="M480.731 270.693C476.196 270.693 472.219 267.388 471.52 262.759C470.747 257.662 474.247 252.904 479.34 252.126C503.488 248.458 527.781 251.97 528.809 252.126C533.903 252.884 537.423 257.626 536.677 262.72C535.93 267.818 531.122 271.337 526.083 270.587C525.86 270.552 503.458 267.349 482.153 270.587C481.676 270.662 481.199 270.693 480.731 270.693" fill="#000000" fill-rule="evenodd" opacity="1" stroke="none"/>
<path d="M284.751 252.023C279.599 252.023 275.419 247.843 275.419 242.691C275.419 206.664 246.11 177.355 210.083 177.355C174.06 177.355 144.751 206.664 144.751 242.691C144.751 247.843 140.571 252.023 135.419 252.023C130.267 252.023 126.083 247.843 126.083 242.691C126.083 196.379 163.771 158.691 210.083 158.691C256.395 158.691 294.083 196.379 294.083 242.691C294.083 247.843 289.903 252.023 284.751 252.023" fill="#000000" fill-rule="evenodd" opacity="1" stroke="none"/>
<path d="M508.751 476.023C503.599 476.023 499.419 471.843 499.419 466.691C499.419 461.539 503.599 457.355 508.751 457.355C560.216 457.355 602.083 415.367 602.083 363.761C602.083 318.812 569.251 278.726 525.72 270.531L518.216 269.113L518.114 261.476C517.103 184.214 454.637 121.356 378.864 121.356C332.134 121.356 285.137 146.602 259.134 185.672L253.97 193.438L246.197 188.266C235.463 181.129 222.974 177.356 210.076 177.356C174.053 177.356 144.744 206.665 144.744 242.692C144.744 243.473 135.616 251.439 135.616 252.595C135.616 252.595 126.076 243.883 126.076 242.688C126.076 196.376 163.764 158.688 210.076 158.688C223.619 158.688 236.806 161.915 248.697 168.094C279.107 127.551 328.181 102.688 378.857 102.688C462.345 102.688 531.587 169.84 536.507 253.828C585.023 266.574 620.741 312.523 620.741 363.758C620.741 425.656 570.499 476.018 508.741 476.018" fill="#000000" fill-rule="evenodd" opacity="1" stroke="none"/>
<path d="M471.421 56.0228C466.269 56.0228 462.085 51.8431 462.085 46.6908L462.085 9.35484C462.085 4.20254 466.269 0.022844 471.421 0.022844C476.573 0.022844 480.753 4.20254 480.753 9.35484L480.753 46.6908C480.753 51.8431 476.573 56.0228 471.421 56.0228" fill="#000000" fill-rule="evenodd" opacity="1" stroke="none"/>
<path d="M611.421 158.693L574.085 158.693C568.933 158.693 564.753 154.509 564.753 149.357C564.753 144.205 568.933 140.025 574.085 140.025L611.421 140.025C616.573 140.025 620.753 144.205 620.753 149.357C620.753 154.509 616.573 158.693 611.421 158.693" fill="#000000" fill-rule="evenodd" opacity="1" stroke="none"/>
<path d="M564.321 114.973C560.821 114.973 557.462 112.992 555.876 109.617C553.673 104.949 555.68 99.3943 560.344 97.1913L594.121 81.2963C598.782 79.0932 604.344 81.101 606.535 85.769C608.739 90.4331 606.731 95.988 602.067 98.191L568.29 114.086C567.008 114.692 565.657 114.973 564.321 114.973" fill="#000000" fill-rule="evenodd" opacity="1" stroke="none"/>
<path d="M427.711 65.7928C424.211 65.7928 420.852 63.8162 419.266 60.4373L403.371 26.6603C401.168 21.9923 403.175 16.4303 407.839 14.2383C412.5 12.043 418.062 14.043 420.253 18.7071L436.148 52.4841C438.352 57.1521 436.344 62.7071 431.68 64.9061C430.398 65.5155 429.047 65.7929 427.711 65.7929" fill="#000000" fill-rule="evenodd" opacity="1" stroke="none"/>
<path d="M526.311 71.9368C524.604 71.9368 522.877 71.472 521.327 70.4915C516.979 67.7376 515.682 61.9681 518.432 57.6085L538.397 26.0615C541.151 21.7138 546.92 20.4092 551.28 23.1592C555.636 25.9248 556.925 31.6904 554.171 36.0422L534.206 67.5972C532.432 70.398 529.409 71.937 526.311 71.937" fill="#000000" fill-rule="evenodd" opacity="1" stroke="none"/>
<path d="M589.711 233.563C588.004 233.563 586.277 233.094 584.727 232.114L553.18 212.153C548.82 209.399 547.523 203.629 550.277 199.27C553.039 194.91 558.797 193.606 563.156 196.379L594.711 216.34C599.063 219.094 600.36 224.863 597.606 229.223C595.832 232.02 592.809 233.563 589.711 233.563" fill="#000000" fill-rule="evenodd" opacity="1" stroke="none"/>
<path d="M384.661 103.793C382.95 103.793 381.223 103.324 379.677 102.348L348.13 82.3825C343.77 79.6286 342.473 73.8591 345.227 69.4995C347.989 65.144 353.747 63.8472 358.106 66.6089L389.661 86.5739C394.013 89.3239 395.31 95.0934 392.556 99.4529C390.782 102.254 387.759 103.793 384.661 103.793" fill="#000000" fill-rule="evenodd" opacity="1" stroke="none"/>
<path d="M524.961 246.173C521.824 246.173 518.754 244.595 516.988 241.72C514.301 237.325 515.672 231.583 520.07 228.876C548.05 211.724 564.75 181.997 564.75 149.356C564.75 97.8947 522.879 56.0237 471.414 56.0237C432.719 56.0237 398.605 79.3757 384.512 115.516C382.637 120.313 377.243 122.692 372.426 120.817C367.629 118.949 365.25 113.535 367.125 108.731C384.027 65.3755 424.961 37.3555 471.415 37.3555C533.173 37.3555 583.415 87.5975 583.415 149.356C583.415 188.54 563.388 224.211 529.833 244.801C528.314 245.734 526.623 246.172 524.962 246.172" fill="#000000" fill-rule="evenodd" opacity="1" stroke="none"/>
<g opacity="1">
<path d="M237.583 400.839L50.9129 400.839C45.7527 400.839 41.5809 396.66 41.5809 391.507C41.5809 386.355 45.7528 382.171 50.9129 382.171L237.583 382.171C242.743 382.171 246.915 386.355 246.915 391.507C246.915 396.66 242.743 400.839 237.583 400.839" fill="#000000" fill-rule="evenodd" opacity="1" stroke="none"/>
<path d="M237.583 512.839C232.419 512.839 228.247 508.66 228.247 503.507C228.247 498.355 232.419 494.171 237.583 494.171C253.021 494.171 265.583 481.609 265.583 466.171C265.583 450.733 253.021 438.171 237.583 438.171L88.2429 438.171C83.0827 438.171 78.9109 433.992 78.9109 428.839C78.9109 423.687 83.0828 419.507 88.2429 419.507L237.583 419.507C263.313 419.507 284.247 440.441 284.247 466.171C284.247 491.905 263.313 512.839 237.583 512.839" fill="#000000" fill-rule="evenodd" opacity="1" stroke="none"/>
<path d="M237.583 363.509L13.5829 363.509C8.41885 363.509 4.24705 359.326 4.24705 354.173C4.24705 349.021 8.41895 344.841 13.5829 344.841L237.583 344.841C253.021 344.841 265.583 332.279 265.583 316.841C265.583 301.403 253.021 288.841 237.583 288.841C232.419 288.841 228.247 284.662 228.247 279.509C228.247 274.357 232.419 270.174 237.583 270.174C263.313 270.174 284.247 291.112 284.247 316.842C284.247 342.572 263.313 363.51 237.583 363.51" fill="#000000" fill-rule="evenodd" opacity="1" stroke="none"/>
<path d="M237.583 326.169L200.247 326.169C195.087 326.169 190.915 321.99 190.915 316.837C190.915 311.685 195.087 307.505 200.247 307.505L237.583 307.505C242.743 307.505 246.915 311.685 246.915 316.837C246.915 321.99 242.743 326.169 237.583 326.169" fill="#000000" fill-rule="evenodd" opacity="1" stroke="none"/>
<path d="M237.583 475.509L200.247 475.509C195.087 475.509 190.915 471.326 190.915 466.173C190.915 461.021 195.087 456.841 200.247 456.841L237.583 456.841C242.743 456.841 246.915 461.021 246.915 466.173C246.915 471.326 242.743 475.509 237.583 475.509" fill="#000000" fill-rule="evenodd" opacity="1" stroke="none"/>
</g>
</g>
</g>
</svg>
