<?xml version="1.0" encoding="UTF-8" standalone="no"?>
<!DOCTYPE svg PUBLIC "-//W3C//DTD SVG 1.1//EN" "http://www.w3.org/Graphics/SVG/1.1/DTD/svg11.dtd">
<!-- Created with Vectornator (http://vectornator.io/) -->
<svg height="100%" stroke-miterlimit="10" style="fill-rule:nonzero;clip-rule:evenodd;stroke-linecap:round;stroke-linejoin:round;" version="1.1" viewBox="0 0 555 555" width="100%" xml:space="preserve" xmlns="http://www.w3.org/2000/svg" xmlns:xlink="http://www.w3.org/1999/xlink">
<defs/>
<g id="Untitled">
<g opacity="1">
<path d="M193.681 153.801C193.681 130.399 174.458 111.176 151.056 111.176C127.654 111.176 108.431 130.399 108.431 153.801C108.431 177.203 127.654 196.426 151.056 196.426C174.458 196.43 193.681 178.043 193.681 153.801ZM125.978 153.801C125.978 139.594 137.681 127.891 151.888 127.891C166.095 127.891 177.798 139.594 177.798 153.801C177.798 168.008 166.095 179.711 151.888 179.711C137.681 179.711 125.978 168.848 125.978 153.801Z" fill="#000000" fill-rule="nonzero" opacity="1" stroke="none"/>
<path d="M481.211 103.651C481.211 75.2335 457.809 51.8315 429.391 51.8315C400.973 51.8315 377.571 75.2335 377.571 103.651C377.571 132.069 400.973 155.471 429.391 155.471C457.809 155.471 481.211 132.069 481.211 103.651ZM394.285 103.651C394.285 84.4285 410.164 68.5465 429.39 68.5465C448.613 68.5465 464.495 84.4255 464.495 103.651C464.495 122.874 448.616 138.756 429.39 138.756C410.163 138.756 394.285 122.877 394.285 103.651Z" fill="#000000" fill-rule="nonzero" opacity="1" stroke="none"/>
<path d="M62.4606 254.101C42.4016 285.027 27.3556 346.042 24.8476 406.221C22.3398 468.069 31.5351 553.322 93.3866 553.322C127.657 553.322 176.133 531.591 202.047 531.591C279.777 539.115 304.017 547.47 334.937 547.47C366.699 547.47 452.787 533.264 474.517 498.158C494.576 467.232 509.622 406.217 512.13 346.038C513.801 307.589 511.294 240.728 478.696 211.468C503.77 176.363 530.516 132.902 530.516 103.648C530.516 47.6485 484.547 1.6785 428.546 1.6785C372.545 1.6785 327.406 47.6475 327.406 103.648C327.406 135.41 358.332 183.886 385.078 219.828C336.601 239.887 335.766 240.723 271.408 220.664C252.185 214.813 232.127 208.125 215.408 206.457C226.275 188.07 233.795 168.844 233.795 154.637C233.795 109.504 197.018 71.8914 151.049 71.8914C105.08 71.8914 68.3026 108.668 68.3026 154.637C68.3026 174.696 83.3456 202.278 100.065 227.352C82.5136 234.876 69.1386 244.067 62.4556 254.098L62.4606 254.101ZM41.5626 407.051C42.3985 392.844 43.2345 378.633 45.7423 364.426C65.8013 384.485 92.5473 396.188 124.308 402.039C105.085 429.621 77.5033 452.187 44.0703 465.562C41.5625 448.843 40.7265 428.785 41.5625 407.05L41.5626 407.051ZM151.063 525.741C87.5396 542.46 61.6286 547.471 46.5826 482.28C86.7036 467.237 120.97 438.819 141.868 404.55C150.227 405.386 159.419 405.386 167.778 405.386C176.137 405.386 184.493 405.386 192.852 404.55L192.852 486.46C184.492 496.491 178.645 507.355 176.973 518.222C169.449 520.726 160.254 523.234 151.063 525.742L151.063 525.741ZM161.09 280.851C166.941 273.328 180.313 257.449 194.524 239.058L194.524 388.668C180.317 389.504 166.106 390.34 151.899 389.504C167.778 353.563 171.958 316.789 161.09 280.844L161.09 280.851ZM495.42 357.746C493.748 377.805 491.24 397.867 487.06 417.09C449.447 413.747 413.509 412.911 374.22 417.09L374.224 326.82C405.146 348.55 448.611 361.09 495.414 357.746L495.42 357.746ZM357.51 418.762C294.822 427.122 242.17 446.344 210.4 470.582L210.4 402.879C262.22 397.028 314.88 380.313 357.51 358.582L357.51 418.762ZM195.36 515.716C197.867 509.028 201.211 502.34 207.063 495.656C207.898 494.821 208.734 493.985 208.734 493.149C234.644 465.567 289.808 443.837 357.514 434.641L357.514 528.254C302.346 535.777 237.984 512.375 195.364 515.715L195.36 515.716ZM461.15 489.805C449.451 507.36 409.33 520.731 374.228 526.582L374.228 433.805C411.841 429.626 446.943 430.462 482.888 433.805C477.036 456.375 469.513 476.434 461.154 489.805L461.15 489.805ZM429.392 18.4055C476.197 18.4055 514.646 56.8545 514.646 103.659C514.646 140.436 457.81 214.819 429.392 249.089C400.974 215.655 344.138 141.269 344.138 103.659C344.138 56.8545 382.583 18.4055 429.392 18.4055ZM422.704 267.475C424.376 269.147 426.884 269.983 428.556 269.983C430.228 269.983 433.571 269.147 434.407 267.475C436.079 265.804 451.122 249.088 468.677 225.682C487.064 244.069 497.095 285.862 495.423 341.022C426.048 346.874 349.993 311.768 343.303 251.588C357.51 249.081 374.229 242.393 391.78 234.873L395.124 233.202C410.167 252.429 421.87 265.8 422.706 267.472L422.704 267.475ZM327.419 251.596C329.927 274.162 340.794 295.057 357.509 312.612L357.509 340.194C316.552 361.924 262.224 379.479 210.399 386.163L210.399 222.343C243.833 226.523 293.145 248.253 327.419 251.597L327.419 251.596ZM151.059 88.6165C187 88.6165 217.09 117.87 217.09 154.647C217.09 183.065 174.465 239.065 151.059 266.647C128.493 239.901 85.0281 183.065 85.0281 154.647C85.864 117.87 115.118 88.6165 151.059 88.6165ZM110.102 240.736C125.145 260.796 139.356 277.513 143.536 283.361C155.239 318.466 150.224 354.404 133.505 387.001C98.4001 381.99 68.3101 368.618 49.9231 343.544C65.8061 259.126 85.0281 250.767 110.103 240.734L110.102 240.736Z" fill="#000000" fill-rule="nonzero" opacity="1" stroke="none"/>
</g>
</g>
</svg>
